HIERARCHY
ROOT Hips
{
	OFFSET -14.64140 90.27770 -84.91600
	CHANNELS 6 Xposition Yposition Zposition Zrotation Xrotation Yrotation
	JOINT Spine
	{
		OFFSET 0.00000 13.20850 -1.60436
		CHANNELS 3 Zrotation Xrotation Yrotation
		JOINT Spine1
		{
			OFFSET 0.00000 8.61716 0.00000
			CHANNELS 3 Zrotation Xrotation Yrotation
			JOINT Spine2
			{
				OFFSET 0.00000 8.61717 0.00000
				CHANNELS 3 Zrotation Xrotation Yrotation
				JOINT Spine3
				{
					OFFSET 0.00000 8.61717 0.00000
					CHANNELS 3 Zrotation Xrotation Yrotation
					JOINT Neck
					{
						OFFSET 0.00000 11.07920 1.10792
						CHANNELS 3 Zrotation Xrotation Yrotation
						JOINT Neck1
						{
							OFFSET 0.00000 7.08032 0.00000
							CHANNELS 3 Zrotation Xrotation Yrotation
							JOINT Head
							{
								OFFSET 0.00000 7.08031 0.00000
								CHANNELS 3 Zrotation Xrotation Yrotation
								End site
								{
									OFFSET 0.00000 0.00000 0.00000
								}
							}
						}
					}
					JOINT RightShoulder
					{
						OFFSET -0.01000 7.91373 5.19711
						CHANNELS 3 Zrotation Xrotation Yrotation
						JOINT RightArm
						{
							OFFSET -18.41580 0.00000 0.00000
							CHANNELS 3 Zrotation Xrotation Yrotation
							JOINT RightForeArm
							{
								OFFSET -29.11090 0.00000 0.00000
								CHANNELS 3 Zrotation Xrotation Yrotation
								JOINT RightHand
								{
									OFFSET -24.65040 0.00000 0.00000
									CHANNELS 3 Zrotation Xrotation Yrotation
									JOINT RightHandThumb1
									{
										OFFSET -5.35114 -0.85590 3.97906
										CHANNELS 3 Zrotation Xrotation Yrotation
										JOINT RightHandThumb2
										{
											OFFSET -4.52789 0.00000 0.00000
											CHANNELS 3 Zrotation Xrotation Yrotation
											JOINT RightHandThumb3
											{
												OFFSET -2.46976 0.00000 0.00000
												CHANNELS 3 Zrotation Xrotation Yrotation
												End site
												{
													OFFSET 0.00000 0.00000 0.00000
												}
											}
										}
									}
									JOINT RightHandIndex1
									{
										OFFSET -14.26970 0.00000 2.88139
										CHANNELS 3 Zrotation Xrotation Yrotation
										JOINT RightHandIndex2
										{
											OFFSET -5.48836 0.00000 0.00000
											CHANNELS 3 Zrotation Xrotation Yrotation
											JOINT RightHandIndex3
											{
												OFFSET -3.01859 0.00000 0.00000
												CHANNELS 3 Zrotation Xrotation Yrotation
												End site
												{
													OFFSET 0.00000 0.00000 0.00000
												}
											}
										}
									}
									JOINT RightHandMiddle1
									{
										OFFSET -14.26970 0.00000 -0.09147
										CHANNELS 3 Zrotation Xrotation Yrotation
										JOINT RightHandMiddle2
										{
											OFFSET -6.17441 0.00000 0.00000
											CHANNELS 3 Zrotation Xrotation Yrotation
											JOINT RightHandMiddle3
											{
												OFFSET -3.56743 0.00000 0.00000
												CHANNELS 3 Zrotation Xrotation Yrotation
												End site
												{
													OFFSET 0.00000 0.00000 0.00000
												}
											}
										}
									}
									JOINT RightHandRing1
									{
										OFFSET -12.69180 0.00000 -3.06433
										CHANNELS 3 Zrotation Xrotation Yrotation
										JOINT RightHandRing2
										{
											OFFSET -5.62556 0.00000 0.00000
											CHANNELS 3 Zrotation Xrotation Yrotation
											JOINT RightHandRing3
											{
												OFFSET -3.56744 0.00000 0.00000
												CHANNELS 3 Zrotation Xrotation Yrotation
												End site
												{
													OFFSET 0.00000 0.00000 0.00000
												}
											}
										}
									}
									JOINT RightHandPinky1
									{
										OFFSET -11.11390 0.00000 -6.03719
										CHANNELS 3 Zrotation Xrotation Yrotation
										JOINT RightHandPinky2
										{
											OFFSET -4.52789 0.00000 0.00000
											CHANNELS 3 Zrotation Xrotation Yrotation
											JOINT RightHandPinky3
											{
												OFFSET -2.46976 0.00000 0.00000
												CHANNELS 3 Zrotation Xrotation Yrotation
												End site
												{
													OFFSET 0.00000 0.00000 0.00000
												}
											}
										}
									}
								}
							}
						}
					}
					JOINT LeftShoulder
					{
						OFFSET 0.01000 7.91373 5.19711
						CHANNELS 3 Zrotation Xrotation Yrotation
						JOINT LeftArm
						{
							OFFSET 18.41580 0.00000 0.00000
							CHANNELS 3 Zrotation Xrotation Yrotation
							JOINT LeftForeArm
							{
								OFFSET 29.11090 0.00000 0.00000
								CHANNELS 3 Zrotation Xrotation Yrotation
								JOINT LeftHand
								{
									OFFSET 24.65040 0.00000 0.00000
									CHANNELS 3 Zrotation Xrotation Yrotation
									JOINT LeftHandThumb1
									{
										OFFSET 5.35114 -0.85590 3.97906
										CHANNELS 3 Zrotation Xrotation Yrotation
										JOINT LeftHandThumb2
										{
											OFFSET 4.52789 0.00000 0.00000
											CHANNELS 3 Zrotation Xrotation Yrotation
											JOINT LeftHandThumb3
											{
												OFFSET 2.46977 0.00000 0.00000
												CHANNELS 3 Zrotation Xrotation Yrotation
												End site
												{
													OFFSET 0.00000 0.00000 0.00000
												}
											}
										}
									}
									JOINT LeftHandIndex1
									{
										OFFSET 14.26970 0.00000 2.88139
										CHANNELS 3 Zrotation Xrotation Yrotation
										JOINT LeftHandIndex2
										{
											OFFSET 5.48836 0.00000 0.00000
											CHANNELS 3 Zrotation Xrotation Yrotation
											JOINT LeftHandIndex3
											{
												OFFSET 3.01859 0.00000 0.00000
												CHANNELS 3 Zrotation Xrotation Yrotation
												End site
												{
													OFFSET 0.00000 0.00000 0.00000
												}
											}
										}
									}
									JOINT LeftHandMiddle1
									{
										OFFSET 14.26970 0.00000 -0.09147
										CHANNELS 3 Zrotation Xrotation Yrotation
										JOINT LeftHandMiddle2
										{
											OFFSET 6.17440 0.00000 0.00000
											CHANNELS 3 Zrotation Xrotation Yrotation
											JOINT LeftHandMiddle3
											{
												OFFSET 3.56744 0.00000 0.00000
												CHANNELS 3 Zrotation Xrotation Yrotation
												End site
												{
													OFFSET 0.00000 0.00000 0.00000
												}
											}
										}
									}
									JOINT LeftHandRing1
									{
										OFFSET 12.69180 0.00000 -3.06433
										CHANNELS 3 Zrotation Xrotation Yrotation
										JOINT LeftHandRing2
										{
											OFFSET 5.62556 0.00000 0.00000
											CHANNELS 3 Zrotation Xrotation Yrotation
											JOINT LeftHandRing3
											{
												OFFSET 3.56744 0.00000 0.00000
												CHANNELS 3 Zrotation Xrotation Yrotation
												End site
												{
													OFFSET 0.00000 0.00000 0.00000
												}
											}
										}
									}
									JOINT LeftHandPinky1
									{
										OFFSET 11.11390 0.00000 -6.03719
										CHANNELS 3 Zrotation Xrotation Yrotation
										JOINT LeftHandPinky2
										{
											OFFSET 4.52789 0.00000 0.00000
											CHANNELS 3 Zrotation Xrotation Yrotation
											JOINT LeftHandPinky3
											{
												OFFSET 2.46976 0.00000 0.00000
												CHANNELS 3 Zrotation Xrotation Yrotation
												End site
												{
													OFFSET 0.00000 0.00000 0.00000
												}
											}
										}
									}
								}
							}
						}
					}
					JOINT pCube4
					{
						OFFSET 0.00000 10.91090 1.10792
						CHANNELS 3 Zrotation Xrotation Yrotation
						End site
						{
							OFFSET 0.00000 0.00000 0.00000
						}
					}
				}
			}
		}
	}
	JOINT RightUpLeg
	{
		OFFSET -9.98441 0.00000 0.00000
		CHANNELS 3 Zrotation Xrotation Yrotation
		JOINT RightLeg
		{
			OFFSET 0.00000 -42.11790 0.00000
			CHANNELS 3 Zrotation Xrotation Yrotation
			JOINT RightFoot
			{
				OFFSET 0.00000 -45.00020 -0.00001
				CHANNELS 3 Zrotation Xrotation Yrotation
				JOINT RightForeFoot
				{
					OFFSET 0.00000 -3.74820 0.00000
					CHANNELS 3 Zrotation Xrotation Yrotation
					JOINT RightToeBase
					{
						OFFSET 0.00000 0.06325 14.43120
						CHANNELS 3 Zrotation Xrotation Yrotation
						End site
						{
							OFFSET 0.00000 0.00000 0.00000
						}
					}
				}
			}
		}
	}
	JOINT LeftUpLeg
	{
		OFFSET 9.98441 0.00000 0.00000
		CHANNELS 3 Zrotation Xrotation Yrotation
		JOINT LeftLeg
		{
			OFFSET 0.00000 -42.11800 0.00000
			CHANNELS 3 Zrotation Xrotation Yrotation
			JOINT LeftFoot
			{
				OFFSET 0.00000 -45.00070 0.00000
				CHANNELS 3 Zrotation Xrotation Yrotation
				JOINT LeftForeFoot
				{
					OFFSET 0.00000 -3.74824 0.00000
					CHANNELS 3 Zrotation Xrotation Yrotation
					JOINT LeftToeBase
					{
						OFFSET 0.00000 0.06325 14.43110
						CHANNELS 3 Zrotation Xrotation Yrotation
						End site
						{
							OFFSET 0.00000 0.00000 0.00000
						}
					}
				}
			}
		}
	}
}
MOTION
Frames: 4
Frame Time: 0.050000
-0.038317111696202694 -0.042267083786031015 -0.04939548937077448 0.030298326627662728 -0.019598160630641702 -0.022765086507233204 -2.206402047762733 3.9045759976959045 -1.0567692366928974 -0.9097568763507768 3.839194185841029 0.38288173175822465 -0.9612832446661211 -0.40224838064482615 -1.0703091136447507 0.685347742950468 0.393899497058021 -0.8800898876548737 -0.14716122145759883 10.985923005332438 -1.0159478159527455 0.015947441633649 -1.0027859969466515 -3.5636993894907807 0.379438021721166 -15.832467371580977 -0.2791076220091652 0.2935929742034176 0.5205653139572214 -14.906321154316261 66.113723588629 1.2707358858058488 9.105636841221893 30.737623374301517 -1.8730924609463375 93.75621901574664 13.55420082638995 -0.34348820579940315 -4.379500064957413 4.485290697914908 -0.1752196896062705 -1.5562382766106537 0.04510128754912451 -0.012947155916995953 -56.26707999426922 -0.04284515415750581 -0.03492468583648768 -56.20188471799733 -38.74080121587795 0.029071175632712568 0.014666359579386067 -0.014816762220764314 -0.0018482247393633625 -0.023641820924568534 0.016515623266994912 -0.029472555904397752 -0.021560583762654073 -36.711333401364975 0.0020921080296253986 -0.04704092831060945 0.011261946371627269 0.02108245747043367 -0.01783136969448351 -0.009199322201785022 -0.04874227045083168 -0.002245617665581074 -19.776313423233855 -0.005296352225958467 0.027114260145589392 0.03170018802975569 0.01137509056412094 -0.0414497872028975 0.04812700243860125 -0.025342095161355004 -0.016858679156893173 24.064480184314395 -0.029643259256387212 0.03076240395804853 28.85085715930896 0.02300363034329721 0.04086328995767877 28.830862307566555 -0.014053271423996804 -0.009183995870560822 1.1168249369798593 0.7062829382259053 12.719915125574607 -61.6962979704716 26.75795722370853 -17.15950884734921 -6.30103252616006 6.860843829311924 -75.89672674241928 -13.16448276260276 3.8395530976819727 -1.7421267524388544 -0.4366331255992558 0.03831264952128505 -8.122638726884862 -0.04308690421786423 0.020291048279355267 44.59860211579175 0.03431326124340854 0.009962854742668269 44.57991909629243 12.499622643151644 0.025768240438628957 -0.04118564593739561 -0.04698612099863137 -0.016307701862101204 0.017923258962003343 0.03130927672258114 0.019674753400009855 -0.018234879925691533 11.152878535308924 0.0272687585290131 -0.011426592733203305 0.039650410003610984 -0.04351878002089943 0.006966818623215937 -0.0028370655011005354 0.02482356209787649 -0.025828434414409664 4.754997822010759 -0.04076705269463305 0.04794784778800095 -0.046276645735590025 -0.03325962203652428 -0.032953893335320374 0.0022893539914101996 0.04516552216766385 0.04214683243769351 -5.5692332937250715 0.04004808230654451 -0.04498856102944171 -6.718239354963456 -0.04984687849484701 -0.010127780321274456 -6.738965823784392 -0.04130073368755378 -0.03576231643909889 0.026919008068168406 -0.009268599907814213 -0.030870283069266594 8.071846946480232 3.478618085000747 -19.259479760715735 -0.03598843008976462 10.421849218959666 0.010747328850567214 -5.632220538339038 -15.699587894103498 3.198415558276702 -0.007583322735809106 -0.02377670450445085 -0.03629348149302464 0.011358391358089633 4.671486271373638 -0.01863633635551845 12.422917355077022 -8.257873699496304 6.847870361736216 -0.014793432113139897 46.36600602343272 -0.00352968907331044 -4.355787664447234 -14.779855585386093 -3.7935768440626005 -0.023344316701878098 -0.03899757447729083 0.018675575038285683 -0.006638680786153088 -10.760279322860267 0.017156633348228995 
0.03365969182649058 0.045719520944528996 0.03174824105260165 0.028425075130419558 -0.043056176081319314 -0.014623793229497355 -2.1418155048852716 3.9349368504591684 -1.036445779204847 -0.8860333415955159 3.8446935483954165 0.39580377191801336 -0.8981236225625758 -0.3582257038927139 -0.9412896859166704 0.5283671459792952 0.35358326520804667 -0.8466096977154982 -0.3406516391361162 11.062049636543556 -0.8374074478099605 -0.041816133808742426 -0.9619512202052555 -3.4055792697131753 0.2576755427108309 -15.862190475759023 -0.2680837861552989 0.46372457103253995 0.500670637421114 -14.572037385582915 65.50462331923592 3.4913880487572815 10.888316654778084 31.154093240891047 -2.4339172692839175 92.94628713011325 15.108041720503183 -0.2970130075331911 -4.996287569473445 4.508871057220241 -0.12254998454024553 -1.5470127409537566 0.0041994314780830055 0.022856169005518633 -56.23779013512517 0.02728452461686223 0.020840564151318127 -56.28157270664436 -38.755237181780124 0.04801337777474474 -0.012821270801709195 0.037772159885341335 -0.01728924589644554 -0.017205347082780133 -0.021621756030038124 0.017076232788392667 0.013748726856476035 -36.66184686846964 0.03775959437583042 0.03634068217789942 -0.03668123324568571 0.011387021410302615 -0.03248361176957102 0.024492136100052082 0.03193829135699625 -0.004095561425183771 -19.760137637342897 -0.010359145512535254 0.023513677219297053 -0.008167506133959394 -0.0428209666336857 0.015800451769577867 -0.033292969923634855 0.04376271097122064 0.001635023816848479 24.053583741978436 0.01791014473804815 0.02537335567111276 28.886313523076076 0.03077413388156955 -0.0032850163595947446 28.885279967190286 0.038869233077450875 -0.03442345444769992 1.2785979768849909 0.727595858599339 12.727296574702361 -60.603454022653644 26.78950077793802 -19.4854264969515 -4.584248902929424 5.1804371467812835 -77.23812471624568 -13.745167516316608 4.349822319109044 -2.3584896486328604 -0.4982721679166354 0.03205756377609971 -8.12742300714566 -0.002664900864703864 0.019206363649991027 44.52328971111201 -0.00723923520401184 0.02210718315162013 44.58471072450059 12.43764337201309 -0.049375957338385165 -0.009814120127364993 0.020510514654119513 -0.02100226624190674 -0.00748737781781327 -0.004353341286163047 0.019214630136570935 -0.028538689533362683 11.085227296376114 -0.036790977985722596 -0.02218880310521593 0.0029998069914663568 0.0011410695909770561 0.013031089584294829 -0.010840250518788022 0.03521888638186538 0.002155594586623125 4.751443017034317 -0.02361986011844084 -0.03224838316535556 -0.010480700615763784 0.02395241355146816 0.03376725025095714 -0.01067241744681207 0.024448648167446487 -0.001764307010502364 -5.605532504762976 -0.03579634384951098 -0.011554342711380615 -6.723212061740534 0.03248348533491933 0.01619613599031549 -6.688660343859274 -0.03643657347680455 0.025050900486722986 -0.03949717059245697 -0.009781998205889661 -0.012548031036524904 8.016620406792754 3.447312300485423 -19.180115963771303 0.031583060473474436 10.433815405889515 0.04318251368185848 -5.648725606108865 -15.664140897147236 3.193218687662815 -0.0032414340534333386 0.005357014978506213 -0.0099546893179168 0.027373426598826835 4.693650782039245 0.030748589584082404 12.448826276026807 -8.257775213172973 6.876192636278909 0.00037326602109615534 46.41415874339314 0.048357026689203934 -4.362991256966283 -14.711882190741699 -3.8092123702413723 -0.0067119597544519705 -0.03712180517742409 -0.02111840694960049 -0.019546615831369046 -10.710832802183287 -0.01945325763166428 
-0.03434587012059342 -0.003954648065192126 -0.04486823970286778 0.008403893747525697 -0.0361218191427578 0.0037225297836335964 -2.1960086281322018 4.119360823732802 -0.950617640578342 -0.8980483134624405 3.857407408638721 0.42108089020999784 -0.8846062417167067 -0.33501311311092424 -1.0115829293397325 0.5778156602445276 0.34894695752539584 -0.8192559055641122 -0.33734979910255203 11.026505687261118 -0.832491854143744 -0.10472142459692269 -0.9613883870598106 -3.3525532233406037 0.2105002078004697 -15.820678560699589 -0.2400340011143315 0.7860120798138439 0.40480589186577043 -14.349241575071423 64.82657425176157 4.629081841439787 12.094861311651899 31.897264751842393 -2.4392983988220363 92.54848040658413 16.07372928058611 -0.2618164702166341 -5.599749079013189 4.563817300293905 -0.1747296872180229 -1.574323376568822 0.024557896350222715 0.019835796116177716 -56.261727931105135 0.03979439063691141 -0.0038589458920776074 -56.24277562913148 -38.81884271256629 0.035742417833507956 -0.03879423597528949 0.01887946941168442 -0.03631679877718064 -0.01243077893123456 0.035850781093584125 -0.00044619584405790417 0.028633740586229146 -36.71818337438529 -0.014296221463061507 0.04661968168585 -0.008937123920938175 -0.012050082677982242 -0.005361901880153558 -0.04188318567031032 0.008724917051457816 -0.03576402088467142 -19.783570508921148 0.039956961005722616 0.02720093960411774 0.0025369752598125837 -0.04421719985707151 -0.03203967581547737 0.03222963034175004 -0.047706523094134784 -0.03614630008761919 24.089467393126128 -0.008731782811963096 -0.014472944783660985 28.914175598076806 -0.014341166474712197 0.0063068031418456625 28.836492218686097 0.007533858125720693 -0.005348096705288167 1.20216696348332 0.750947446005785 12.570348636831872 -59.465260841405374 27.166273602280977 -21.280743665175724 -2.562440509048827 3.8557904442598607 -78.14211935314842 -13.915356719410745 4.720977756960796 -2.7222656294191796 -0.45466470730895336 0.06861854100109485 -8.166021104564585 -0.02588102713811387 0.002175828170490009 44.54144773129695 -0.006016675353340364 -0.024763211242503462 44.58234419536625 12.503007558614582 -0.011946322383241049 -0.018205223515612802 -0.030322852869600788 0.03106775968466103 -0.04555270298515669 0.03253024686328888 -0.024920945741208723 0.03587250026926872 11.084397468808028 0.04887517995892409 -0.010820638637936938 -0.04565020224898834 -0.0061437656150055125 0.0486519662079089 0.027549729277367065 0.03210316835387921 -0.04234218380804105 4.817096397842344 -0.008643062349590079 0.03854031800923895 0.022094528174507296 0.002393812035522548 -0.03331612602511686 0.02658555432221721 0.03155949256245596 -0.036827124486809415 -5.551113424634545 -0.029121040024025824 -0.00010282834899108882 -6.759723757010704 -0.004343823818163795 0.0375408398993497 -6.739544173687227 -0.03280759322941423 0.0419582693630017 0.007424329302919759 0.018868556094642476 0.010506518736566982 7.999318882145873 3.506028133421263 -19.189702956135726 0.036026774545455886 10.382047634022964 -0.021120626290236064 -5.6531151308602405 -15.676206893947512 3.213346359241861 0.0002867536474256632 -0.004417279326745526 -0.04856001728392189 0.022982615430432195 4.695370302967028 0.011048864652815649 12.473357735283905 -8.208947633383131 6.928202956598065 0.03413190144520225 46.42907250411231 0.008409488416862473 -4.313350194516525 -14.7868503119341 -3.7868281766861074 -0.025319419647384635 -0.006540072340206926 -0.014897496321141096 -0.016377186460586887 -10.719375481196147 0.03196134076001777 
0.0016151780702505182 0.048898893048476035 -0.01732590573375228 0.03481147929299782 0.008085410931751197 0.0021674960201462953 -2.2584228317144865 4.260845860997742 -0.9744551849427778 -0.9354734071821557 3.8111164823532953 0.35313968017771014 -0.8937564308639028 -0.28924366620490155 -1.065737507464522 0.6278392162524562 0.4021897105302006 -0.8449993041883965 -0.3945832730234795 10.973669783020412 -0.8403748824893938 -0.1282023507034447 -1.0611247726966933 -3.4217249180543403 0.24692178266872566 -15.784297800240406 -0.2774148047590683 1.050015897536594 0.3040528923620627 -14.229733944619008 64.11817510920937 4.990834639481741 12.878827917352792 32.80545875943733 -1.9807021367451885 92.49002918186503 16.705804521362722 -0.27459098304228896 -6.075126019590902 4.536469543815097 -0.10559441603495853 -1.5896887175631234 -0.033365026324795606 0.005356011446155521 -56.2543672838259 0.006424509053429049 0.003699856484361978 -56.23721645431054 -38.782481455685726 0.015675877380781092 -0.027065939161752504 0.028673947395392883 0.04795374559893522 -0.03311938602974641 -0.041227135774173515 -0.0044434850434743765 -0.027017497718743178 -36.736169709741276 -0.04968858069183251 0.04314629581062467 -0.04043813306390154 0.006325300172318885 0.022597034584471373 0.03791006283917121 0.007007514240550325 -0.034003796523024536 -19.731801121005834 -0.009396113055460429 0.035202546704102736 -0.03253823638062257 -0.01752661979913655 -0.030695987141709943 0.03361880884712428 0.01188492247335303 0.019353749219169117 24.036285027109567 -0.008863535872213444 -0.008999653470921035 28.85142893866454 -0.017025745588174053 -0.022018556327876995 28.881984655824755 -0.04896937487376485 -0.02388049400290707 0.9520708508471413 0.6878007233648474 12.475051096625757 -58.381369056882 27.74332727914763 -22.52907876207461 -0.44190835240564896 2.9328239587844935 -78.781425798352 -13.878111182330297 4.967069748842654 -3.1085606516740736 -0.42919077849971526 0.1120064270781657 -8.148928811837672 -0.0055229110737051515 0.02078678298022391 44.542162267243114 0.023315174013862183 0.027055257599983278 44.56731888770239 12.419819271539447 0.008331143447468183 -0.0027401331858418875 -0.020916927887355247 0.031704482960705736 0.006894489249576758 -0.04506750651744616 -0.011100159148701076 0.024335858005547096 11.096054955181383 -0.014231534382362349 0.022434305415612615 0.03377454693798516 -0.0007703937933924038 0.043462173825932204 -0.04878003192357817 0.00019275469719149175 -0.005975505935763641 4.802383636500094 -0.023286795690692627 0.008652690780078005 -0.045736216980492614 -0.034832096203605355 -0.041127135218143075 -0.009748932477198352 0.022547483351648738 0.013701406982646066 -5.56088337889722 0.038758432674364275 -0.020194318918567766 -6.698233261808755 -0.004341014759944935 0.0048503596484735624 -6.729649969614056 -0.003313339469917783 0.024379298503597102 -0.021427303620933744 0.016680381962395324 -0.007121766978166827 8.06808474343469 3.522202697074142 -19.22028855845282 -0.03748054441533505 10.407220494001272 0.05893941038870987 -5.648897107904999 -15.632016609601106 3.186717063765997 0.011924300120995513 0.028752741666201776 -0.0011771113481332867 -0.021407070524025396 4.707966399336645 -0.012188890329707462 12.46274145554971 -8.192918432628206 6.849393049634091 0.008836766283240201 46.348830380719356 0.05111333929779438 -4.340676158852795 -14.771587529488599 -3.8449947109111116 -0.04735558924183907 0.03981298769861196 -0.020573532728481107 0.005147362312890855 -10.744291507766999 0.010446914005481405 
